<svg width="60" height="61" viewBox="0 0 60 61" fill="none" xmlns="http://www.w3.org/2000/svg">
<path d="M0 9.91736C0 4.44015 4.44015 0 9.91736 0H50.0826C55.5598 0 60 4.44015 60 9.91736V51.0744C60 56.5516 55.5598 60.9917 50.0826 60.9917H9.91736C4.44015 60.9917 0 56.5516 0 51.0744V9.91736Z" fill="#8615DF"/>
<path fill-rule="evenodd" clip-rule="evenodd" d="M50.0826 2.47934H9.91736C5.80945 2.47934 2.47934 5.80945 2.47934 9.91736V51.0744C2.47934 55.1823 5.80945 58.5124 9.91736 58.5124H50.0826C54.1905 58.5124 57.5207 55.1823 57.5207 51.0744V9.91736C57.5207 5.80945 54.1905 2.47934 50.0826 2.47934ZM9.91736 0C4.44015 0 0 4.44015 0 9.91736V51.0744C0 56.5516 4.44015 60.9917 9.91736 60.9917H50.0826C55.5598 60.9917 60 56.5516 60 51.0744V9.91736C60 4.44015 55.5598 0 50.0826 0H9.91736Z" fill="#8615DF"/>
<path d="M8.46851 45.124V16.9215H17.1462C19.6255 16.9215 21.8401 17.4832 23.79 18.6067C25.7529 19.7172 27.2831 21.3055 28.3807 23.3716C29.4783 25.4248 30.0271 27.7621 30.0271 30.3835V31.6813C30.0271 34.3027 29.4848 36.6335 28.4001 38.6738C27.3283 40.7141 25.811 42.296 23.8482 43.4194C21.8853 44.5429 19.6707 45.1111 17.2043 45.124H8.46851ZM14.2795 21.6284V40.4558H17.0881C19.3608 40.4558 21.0976 39.7133 22.2986 38.2283C23.4995 36.7433 24.1129 34.6191 24.1387 31.8556V30.3642C24.1387 27.4974 23.5447 25.328 22.3567 23.8559C21.1687 22.3709 19.4318 21.6284 17.1462 21.6284H14.2795Z" fill="white"/>
<path d="M51.485 31.6619C51.485 34.4383 50.9943 36.8724 50.0129 38.9644C49.0315 41.0563 47.624 42.6705 45.7903 43.8068C43.9695 44.9432 41.8776 45.5114 39.5145 45.5114C37.1772 45.5114 35.0917 44.9496 33.258 43.8262C31.4243 42.7027 30.0039 41.1015 28.9967 39.0225C27.9894 36.9305 27.4794 34.5287 27.4664 31.8169V30.4223C27.4664 27.6459 27.9636 25.2053 28.9579 23.1005C29.9652 20.9827 31.3791 19.3621 33.1999 18.2386C35.0336 17.1023 37.1255 16.5341 39.4757 16.5341C41.8259 16.5341 43.9114 17.1023 45.7322 18.2386C47.5659 19.3621 48.9799 20.9827 49.9742 23.1005C50.9814 25.2053 51.485 27.6395 51.485 30.4029V31.6619ZM45.5966 30.3835C45.5966 27.4264 45.0672 25.1795 44.0083 23.6428C42.9494 22.1061 41.4385 21.3378 39.4757 21.3378C37.5258 21.3378 36.0215 22.0997 34.9626 23.6234C33.9037 25.1343 33.3678 27.3554 33.3549 30.2867V31.6619C33.3549 34.5416 33.8843 36.7756 34.9432 38.3639C36.0021 39.9522 37.5258 40.7464 39.5145 40.7464C41.4644 40.7464 42.9623 39.9845 44.0083 38.4607C45.0543 36.9241 45.5837 34.6901 45.5966 31.7588V30.3835Z" fill="white"/>
</svg>
