<svg width="150" height="102" viewBox="0 0 150 102" fill="none" xmlns="http://www.w3.org/2000/svg">
<path d="M0 16.5746C0 7.4207 7.4207 0 16.5746 0H83.7017C92.8555 0 100.276 7.4207 100.276 16.5746V85.3591C100.276 94.513 92.8555 101.934 83.7017 101.934H16.5746C7.4207 101.934 0 94.513 0 85.3591V16.5746Z" fill="white"/>
<path fill-rule="evenodd" clip-rule="evenodd" d="M83.7017 4.14365H16.5746C9.70917 4.14365 4.14365 9.70917 4.14365 16.5746V85.3591C4.14365 92.2245 9.70917 97.7901 16.5746 97.7901H83.7017C90.5671 97.7901 96.1326 92.2245 96.1326 85.3591V16.5746C96.1326 9.70917 90.5671 4.14365 83.7017 4.14365ZM16.5746 0C7.42069 0 0 7.4207 0 16.5746V85.3591C0 94.513 7.4207 101.934 16.5746 101.934H83.7017C92.8555 101.934 100.276 94.513 100.276 85.3591V16.5746C100.276 7.42069 92.8555 0 83.7017 0H16.5746Z" fill="white"/>
<path d="M14.1532 75.4144V28.2804H28.656C32.7996 28.2804 36.5008 29.2192 39.7596 31.0968C43.04 32.9528 45.5974 35.6073 47.4319 39.0603C49.2663 42.4918 50.1835 46.398 50.1835 50.7791V52.948C50.1835 57.3291 49.2771 61.2245 47.4642 64.6344C45.673 68.0443 43.1371 70.688 39.8568 72.5656C36.5764 74.4432 32.8751 75.3928 28.7531 75.4144H14.1532ZM23.8649 36.1468V67.6126H28.5588C32.3572 67.6126 35.2599 66.3717 37.267 63.8898C39.2741 61.408 40.2992 57.8578 40.3423 53.2394V50.7467C40.3423 45.9556 39.3496 42.3299 37.3641 39.8696C35.3786 37.3878 32.4759 36.1468 28.656 36.1468H23.8649Z" fill="#8615DF"/>
<path d="M86.0455 52.9157C86.0455 57.5557 85.2254 61.6238 83.5852 65.12C81.945 68.6162 79.5926 71.3139 76.528 73.213C73.485 75.1122 69.9888 76.0618 66.0394 76.0618C62.1332 76.0618 58.6478 75.123 55.5832 73.2454C52.5186 71.3678 50.1447 68.6917 48.4613 65.2171C46.7779 61.7209 45.9255 57.7067 45.9039 53.1746V50.8438C45.9039 46.2038 46.7348 42.1249 48.3965 38.6071C50.0799 35.0678 52.4431 32.3593 55.4861 30.4817C58.5506 28.5825 62.0468 27.6329 65.9747 27.6329C69.9025 27.6329 73.3879 28.5825 76.4309 30.4817C79.4955 32.3593 81.8587 35.0678 83.5204 38.6071C85.2038 42.1249 86.0455 46.193 86.0455 50.8115V52.9157ZM76.2043 50.7791C76.2043 45.8369 75.3195 42.0817 73.5498 39.5135C71.7801 36.9453 69.2551 35.6612 65.9747 35.6612C62.7159 35.6612 60.2016 36.9346 58.4319 39.4812C56.6623 42.0062 55.7666 45.7182 55.745 50.6172V52.9157C55.745 57.7283 56.6299 61.4619 58.3996 64.1164C60.1693 66.771 62.7159 68.0982 66.0394 68.0982C69.2982 68.0982 71.8017 66.8249 73.5498 64.2783C75.2979 61.7101 76.1827 57.9765 76.2043 53.0775V50.7791Z" fill="#8615DF"/>
<path d="M112.678 46.2988V48.9047H118.634V61.2224H112.678V63.8121H127.343V61.2224H121.629V46.2988H112.678ZM118.246 41.7019C118.246 42.1875 118.392 42.5921 118.683 42.9159C118.985 43.2396 119.438 43.4015 120.043 43.4015C120.636 43.4015 121.084 43.2396 121.386 42.9159C121.688 42.5921 121.839 42.1875 121.839 41.7019C121.839 41.4321 121.796 41.184 121.71 40.9573C121.624 40.7307 121.494 40.5419 121.321 40.3908C121.181 40.2506 121.003 40.1426 120.787 40.0671C120.571 39.9808 120.323 39.9376 120.043 39.9376C119.762 39.9376 119.509 39.9808 119.282 40.0671C119.066 40.1426 118.888 40.2506 118.748 40.3908C118.575 40.5527 118.446 40.7469 118.359 40.9735C118.284 41.2001 118.246 41.4429 118.246 41.7019Z" fill="white"/>
<path d="M139.207 42.058H136.196V46.2988H131.6V48.6134H136.196V58.1308C136.196 59.2099 136.337 60.1325 136.617 60.8986C136.909 61.654 137.302 62.2691 137.799 62.7439C138.295 63.2294 138.878 63.5855 139.547 63.8121C140.227 64.028 140.955 64.1359 141.732 64.1359C142.196 64.1359 142.66 64.1143 143.124 64.0711C143.599 64.028 144.047 63.9632 144.468 63.8769C144.888 63.8014 145.277 63.7096 145.633 63.6017C145.989 63.483 146.291 63.3481 146.539 63.1971L146.118 61.0767C145.935 61.1199 145.698 61.1738 145.406 61.2386C145.126 61.2925 144.824 61.3465 144.5 61.4004C144.165 61.4544 143.825 61.5029 143.48 61.5461C143.135 61.5785 142.8 61.5946 142.477 61.5946C142.034 61.5946 141.613 61.5407 141.214 61.4328C140.826 61.3249 140.48 61.136 140.178 60.8663C139.876 60.6073 139.639 60.2566 139.466 59.8142C139.293 59.3718 139.207 58.8106 139.207 58.1308V48.6134H145.876V46.2988H139.207V42.058Z" fill="white"/>
<path d="M122.652 75.8287C122.652 77.8884 120.982 79.558 118.923 79.558C116.863 79.558 115.193 77.8884 115.193 75.8287C115.193 73.7691 116.863 72.0995 118.923 72.0995C120.982 72.0995 122.652 73.7691 122.652 75.8287Z" fill="white"/>
<path d="M145.028 75.8287C145.028 77.8884 143.358 79.558 141.298 79.558C139.239 79.558 137.569 77.8884 137.569 75.8287C137.569 73.7691 139.239 72.0995 141.298 72.0995C143.358 72.0995 145.028 73.7691 145.028 75.8287Z" fill="white"/>
</svg>
